<svg id="visual" viewBox="0 0 900 600" width="900" height="600" xmlns="http://www.w3.org/2000/svg" xmlns:xlink="http://www.w3.org/1999/xlink" version="1.1"><path d="M0 100L16.7 95.3C33.3 90.7 66.7 81.3 100 80.2C133.3 79 166.7 86 200 90.7C233.3 95.3 266.7 97.7 300 94.2C333.3 90.7 366.7 81.3 400 75C433.3 68.7 466.7 65.3 500 72.5C533.3 79.7 566.7 97.3 600 102.3C633.3 107.3 666.7 99.7 700 92.7C733.3 85.7 766.7 79.3 800 79.2C833.3 79 866.7 85 883.3 88L900 91L900 0L883.3 0C866.7 0 833.3 0 800 0C766.7 0 733.3 0 700 0C666.7 0 633.3 0 600 0C566.7 0 533.3 0 500 0C466.7 0 433.3 0 400 0C366.7 0 333.3 0 300 0C266.7 0 233.3 0 200 0C166.7 0 133.3 0 100 0C66.7 0 33.3 0 16.7 0L0 0Z" fill="#FFC900" stroke-linecap="round" stroke-linejoin="miter"></path></svg>