<svg id="visual" viewBox="0 0 900 600" width="900" height="600" xmlns="http://www.w3.org/2000/svg" xmlns:xlink="http://www.w3.org/1999/xlink" version="1.1"><path d="M0 101L16.7 97C33.3 93 66.7 85 100 81.7C133.3 78.3 166.7 79.7 200 81.3C233.3 83 266.7 85 300 86.8C333.3 88.7 366.7 90.3 400 92.5C433.3 94.7 466.7 97.3 500 99.5C533.3 101.7 566.7 103.3 600 104C633.3 104.7 666.7 104.3 700 98.8C733.3 93.3 766.7 82.7 800 77.5C833.3 72.3 866.7 72.7 883.3 72.8L900 73L900 0L883.3 0C866.7 0 833.3 0 800 0C766.7 0 733.3 0 700 0C666.7 0 633.3 0 600 0C566.7 0 533.3 0 500 0C466.7 0 433.3 0 400 0C366.7 0 333.3 0 300 0C266.7 0 233.3 0 200 0C166.7 0 133.3 0 100 0C66.7 0 33.3 0 16.7 0L0 0Z" fill="#FFC900" stroke-linecap="round" stroke-linejoin="miter"></path></svg>