<svg id="visual" viewBox="0 0 900 600" width="900" height="600" xmlns="http://www.w3.org/2000/svg" xmlns:xlink="http://www.w3.org/1999/xlink" version="1.1"><path d="M0 169L12.5 163.8C25 158.7 50 148.3 75 153.8C100 159.3 125 180.7 150 193C175 205.3 200 208.7 225 210C250 211.3 275 210.7 300 208.3C325 206 350 202 375 195.7C400 189.3 425 180.7 450 174.7C475 168.7 500 165.3 525 173.8C550 182.3 575 202.7 600 200.5C625 198.3 650 173.7 675 169.2C700 164.7 725 180.3 750 187.5C775 194.7 800 193.3 825 185.5C850 177.7 875 163.3 887.5 156.2L900 149L900 0L887.5 0C875 0 850 0 825 0C800 0 775 0 750 0C725 0 700 0 675 0C650 0 625 0 600 0C575 0 550 0 525 0C500 0 475 0 450 0C425 0 400 0 375 0C350 0 325 0 300 0C275 0 250 0 225 0C200 0 175 0 150 0C125 0 100 0 75 0C50 0 25 0 12.5 0L0 0Z" fill="#715DF2" stroke-linecap="round" stroke-linejoin="miter"></path></svg>